<?xml version="1.0" encoding="utf-8"?>
<!-- Generator: Adobe Illustrator 26.3.1, SVG Export Plug-In . SVG Version: 6.00 Build 0)  -->
<svg version="1.1" id="Capa_1" xmlns="http://www.w3.org/2000/svg" xmlns:xlink="http://www.w3.org/1999/xlink" x="0px" y="0px"
	 viewBox="0 0 400 100" style="enable-background:new 0 0 400 100;" xml:space="preserve">
<style type="text/css">
	.st0{fill:#FFFFFF;}
</style>
<g>
	<path class="st0" d="M292.5,34.3c-2-2.2-4.4-3.8-7-5c-2.6-1.2-5.4-1.8-8.4-1.8c-3.1,0-5.9,0.6-8.6,1.8c-2.7,1.2-5,2.9-7,5
		c-2,2.2-3.6,4.7-4.7,7.5c-1.1,2.8-1.7,5.9-1.7,9.1c0,3.3,0.6,6.3,1.7,9.1c1.2,2.8,2.7,5.3,4.7,7.4c2,2.1,4.3,3.8,7,5
		c2.7,1.2,5.5,1.8,8.5,1.8c3.1,0,5.9-0.6,8.6-1.8c2.7-1.2,5-2.9,7-5c2-2.1,3.6-4.6,4.7-7.4c1.1-2.8,1.7-5.9,1.7-9.1
		c0-3.3-0.6-6.3-1.7-9.1C296.1,39,294.5,36.5,292.5,34.3z"/>
	<path class="st0" d="M360.2,29.3c-1.7-0.9-3.7-1.3-6.1-1.3h-15.2v22.9h16.9c1.2,0,2.4-0.2,3.5-0.6c1.2-0.4,2.2-1.1,3.1-2.1
		c0.9-1,1.7-2.2,2.2-3.6c0.6-1.4,0.8-3.1,0.8-5.1c0-2.4-0.5-4.4-1.4-6.1C363.2,31.5,361.9,30.2,360.2,29.3z"/>
	<path class="st0" d="M350.3,0.3h-72.1c-27.4,0-49.7,22.2-49.7,49.7v0c0,27.4,22.2,49.7,49.7,49.7h72.1c27.4,0,49.7-22.2,49.7-49.7
		v0C400,22.6,377.8,0.3,350.3,0.3z M316.6,82.5c-0.9,1.3-1.8,2.2-2.6,2.7c-0.8,0.5-1.6,0.6-2.5,0.3c-0.9-0.2-2-0.7-3.2-1.5l-9.2-6.2
		c-2.9,2.7-6.1,4.8-9.8,6.3c-3.7,1.6-7.6,2.3-11.7,2.3c-4.8,0-9.3-0.9-13.4-2.7c-4.2-1.8-7.8-4.4-11-7.6c-3.2-3.2-5.7-7-7.5-11.2
		c-1.8-4.2-2.7-8.8-2.7-13.6c0-5,0.9-9.7,2.6-14c1.8-4.4,4.2-8.2,7.3-11.5c3.1-3.3,6.7-5.9,10.8-7.7c4.1-1.9,8.5-2.8,13.1-2.8
		c4.8,0,9.3,0.9,13.4,2.7c4.2,1.8,7.8,4.4,11,7.6c3.2,3.2,5.6,7,7.4,11.3c1.8,4.3,2.6,9,2.6,14c0,3.1-0.4,6.2-1.1,9.1
		c-0.8,2.9-1.9,5.7-3.3,8.3l8.5,5.8c1.9,1.3,3,2.5,3.2,3.7C318.5,79,317.9,80.6,316.6,82.5z M378.1,81.4c-0.5,0.8-1.5,1.7-2.8,2.7
		c-1.9,1.3-3.5,1.8-4.7,1.5c-1.2-0.3-2.4-1.4-3.6-3.2L354,62.8h-15.1v16.8c0,1.1-0.1,2.1-0.3,3c-0.2,0.9-0.8,1.7-1.6,2.2
		c-0.8,0.5-2.2,0.8-4.1,0.8c-1.9,0-3.2-0.3-4-0.8c-0.8-0.5-1.4-1.3-1.6-2.2c-0.2-1-0.3-2-0.3-3V21.9c0-1.1,0.1-2,0.4-2.9
		c0.3-0.9,0.8-1.6,1.6-2.2c0.8-0.6,2.2-0.8,4-0.8h21.4c3.1,0,6,0.5,8.7,1.4c2.8,1,5.2,2.4,7.4,4.4c2.2,2,3.9,4.4,5.2,7.4
		c1.3,3,1.9,6.4,1.9,10.3c0,2.6-0.4,5.2-1.2,7.7c-0.8,2.6-2,4.9-3.5,7.1c-1.6,2.2-3.5,4-5.9,5.5c-0.1,0-0.1,0.1-0.2,0.1l10.2,15.5
		c0.9,1.3,1.5,2.5,1.7,3.4C378.8,79.7,378.7,80.6,378.1,81.4z"/>
	<path class="st0" d="M29.3,62.4c-1.7-1-3.6-1.9-5.6-2.5c-2.1-0.6-4.1-1.2-6.1-1.7c-1.4-0.4-2.7-0.8-4-1.2c-1.3-0.4-2.4-0.9-3.3-1.4
		C9.3,55,8.6,54.3,8,53.6c-0.6-0.8-0.8-1.7-0.8-2.8c0-1.5,0.4-2.9,1.2-4c0.8-1.2,2-2.1,3.5-2.7c1.5-0.6,3.3-0.9,5.2-0.9
		c1.3,0,2.6,0.2,3.8,0.5c1.2,0.3,2.4,0.8,3.6,1.4c1.2,0.6,2.3,1.5,3.3,2.5c0.7,0.7,1.4,1,2.1,0.9c0.7-0.1,1.3-0.5,1.9-1.1
		c0.5-0.7,0.8-1.3,0.7-1.9c-0.1-0.6-0.5-1.3-1.3-2c-0.9-0.9-1.8-1.6-2.8-2.2c-1-0.6-2.1-1.2-3.3-1.6c-1.2-0.5-2.4-0.8-3.7-1
		c-1.3-0.2-2.8-0.3-4.3-0.3c-3.1,0-5.8,0.5-8.1,1.6c-2.3,1.1-4.1,2.5-5.4,4.4c-1.3,1.9-1.9,4.1-1.9,6.6c0,2.2,0.4,4,1.3,5.4
		c0.9,1.4,2.1,2.5,3.5,3.4c1.5,0.9,3.1,1.6,4.9,2.1c1.8,0.6,3.7,1.1,5.5,1.5c1.3,0.3,2.5,0.7,3.7,1c1.2,0.4,2.4,0.8,3.4,1.3
		c1,0.5,1.9,1.1,2.7,1.7c0.8,0.7,1.4,1.5,1.9,2.4c0.5,1,0.7,2.1,0.7,3.3c0,2.5-1.1,4.4-3.4,5.8c-2.3,1.4-5.2,2.1-8.9,2.1
		c-0.9,0-1.9-0.1-3-0.3c-1.1-0.2-2.1-0.5-3.2-0.9C10,79.5,9,79,8.1,78.4c-0.9-0.6-1.7-1.2-2.3-1.8c-1.1-1.1-1.9-1.8-2.6-1.9
		c-0.7-0.1-1.4,0.2-2.1,1c-0.5,0.3-0.8,0.7-0.9,1.1c-0.2,0.4-0.2,0.8,0,1.3c0.2,0.5,0.5,1,1,1.7c0.7,0.9,1.7,1.8,2.9,2.5
		c1.2,0.8,2.5,1.4,3.9,2c1.4,0.6,2.9,1,4.5,1.3c1.6,0.3,3.1,0.4,4.6,0.4c5.2,0,9.5-1.2,12.8-3.6c3.4-2.4,5-5.6,5-9.6
		c0-2.7-0.5-4.8-1.6-6.5C32.3,64.7,31,63.4,29.3,62.4z"/>
	<path class="st0" d="M78.7,40.5c-3-1.7-6.4-2.5-10.2-2.5c-3.7,0-6.8,0.8-9.3,2.4c-2.5,1.6-4.6,3.5-6.3,5.6V19.2
		c0-0.8-0.1-1.4-0.2-1.8c-0.2-0.4-0.5-0.7-0.9-0.9c-0.4-0.2-1-0.3-1.7-0.3c-0.7,0-1.3,0.1-1.7,0.3c-0.4,0.2-0.7,0.5-0.9,0.9
		c-0.2,0.4-0.3,1-0.3,1.7v63.6c0,0.7,0.1,1.3,0.2,1.8c0.2,0.5,0.5,0.8,0.9,1c0.4,0.2,1,0.3,1.7,0.3c0.7,0,1.3-0.1,1.7-0.3
		c0.4-0.2,0.7-0.5,0.9-0.9c0.2-0.4,0.3-1,0.3-1.7V57.1c0.4-4.3,2-7.7,4.7-10.2c2.7-2.5,6.3-3.8,10.8-3.8c3.3,0,6,0.7,8.1,2
		c2.1,1.3,3.7,3.2,4.8,5.6c1.1,2.4,1.6,5.2,1.6,8.5v23.5c0,0.7,0.1,1.3,0.2,1.7c0.2,0.4,0.5,0.7,0.9,0.9c0.4,0.2,1,0.3,1.7,0.3
		c0.7,0,1.3-0.1,1.7-0.2c0.4-0.2,0.7-0.5,0.8-0.9c0.2-0.4,0.2-1,0.2-1.7V59.3c0-4.5-0.9-8.4-2.6-11.5C84.1,44.6,81.7,42.2,78.7,40.5
		z"/>
	<path class="st0" d="M133.2,41c-3.6-2.1-7.6-3.1-12.1-3.1c-3.3,0-6.4,0.6-9.3,1.8c-2.9,1.2-5.5,3-7.7,5.2c-2.2,2.2-4,4.8-5.2,7.7
		c-1.2,2.9-1.8,6-1.8,9.4c0,3.3,0.6,6.5,1.9,9.4c1.3,2.9,3,5.5,5.2,7.7c2.2,2.2,4.8,3.9,7.7,5.2c2.9,1.3,6.1,1.9,9.4,1.9
		c3.3,0,6.3-0.6,9.2-1.8c2.9-1.2,5.4-2.9,7.5-5.1c2.2-2.2,3.9-4.8,5.1-7.7c1.2-2.9,1.8-6.1,1.8-9.6c0-4.6-1.1-8.7-3.2-12.3
		C139.6,46,136.7,43.1,133.2,41z M136.9,71.4c-1.6,2.9-3.8,5.2-6.6,6.9c-2.8,1.7-5.8,2.5-9.2,2.5c-3.5,0-6.6-0.8-9.4-2.5
		c-2.8-1.7-5-3.9-6.6-6.8c-1.6-2.9-2.4-6.1-2.4-9.7c0-3.5,0.8-6.7,2.4-9.5c1.6-2.8,3.8-5,6.6-6.6c2.8-1.6,5.9-2.4,9.3-2.4
		c3.5,0,6.7,0.8,9.4,2.3c2.8,1.6,4.9,3.7,6.5,6.5c1.6,2.8,2.4,6,2.4,9.6C139.3,65.2,138.5,68.5,136.9,71.4z"/>
	<path class="st0" d="M182.5,39.7c-0.5-0.4-1.2-0.8-1.9-1.1c-0.8-0.3-1.6-0.6-2.5-0.8c-0.9-0.2-1.9-0.3-2.9-0.3
		c-2.1,0-3.8,0.2-5.1,0.6c-1.4,0.4-2.5,0.9-3.4,1.6c-0.9,0.7-1.7,1.5-2.4,2.4c-0.7,0.9-1.3,2-2,3.1V41c0-0.8-0.1-1.4-0.3-1.8
		c-0.2-0.4-0.5-0.7-0.9-0.8c-0.4-0.1-1-0.2-1.6-0.2c-0.7,0-1.3,0.1-1.7,0.2c-0.4,0.1-0.7,0.4-0.8,0.8c-0.2,0.4-0.2,1-0.2,1.8v41.6
		c0,0.7,0.1,1.3,0.2,1.8c0.2,0.5,0.4,0.8,0.8,1c0.4,0.2,0.9,0.3,1.6,0.3c0.8,0,1.4-0.1,1.8-0.2c0.4-0.2,0.7-0.5,0.9-0.9
		c0.2-0.4,0.2-1,0.2-1.7V53.7c0-1.9,0.4-3.6,1.1-5c0.7-1.4,1.6-2.5,2.7-3.4c1.1-0.9,2.2-1.5,3.4-1.9c1.2-0.4,2.3-0.6,3.3-0.6
		c1.7,0,2.9,0.1,3.7,0.3c0.8,0.2,1.4,0.5,1.8,0.8c0.4,0.3,0.8,0.6,1.1,0.8c0.4,0.2,0.9,0.3,1.6,0.3c0.6,0,1.3-0.3,2-0.9
		c0.7-0.6,1.1-1.3,1.1-2.2c0-0.4-0.1-0.8-0.4-1.2C183.4,40.5,183,40.1,182.5,39.7z"/>
	<path class="st0" d="M219.6,39.7c-0.4-0.2-1-0.2-1.7-0.2l-10.9,0.2V24.7c0-0.7-0.1-1.3-0.3-1.7s-0.5-0.7-0.9-0.8
		c-0.4-0.2-1-0.2-1.7-0.2c-0.7,0-1.2,0.1-1.6,0.3c-0.4,0.2-0.7,0.5-0.8,0.9c-0.2,0.4-0.2,1-0.2,1.8v14.6l-6.2-0.1
		c-1.1,0-1.8,0.2-2.3,0.6c-0.5,0.4-0.7,1.1-0.7,2.1c0,1.1,0.2,1.8,0.6,2.2c0.4,0.4,1.1,0.6,2.2,0.6l6.4-0.1v26c0,2.8,0.3,5.1,0.8,7
		c0.5,1.9,1.4,3.4,2.7,4.5c1.3,1.1,2.9,2,4.9,2.5c2,0.5,4.5,0.8,7.5,0.8c0.7,0,1.3-0.1,1.7-0.2c0.4-0.2,0.7-0.4,0.9-0.8
		c0.2-0.4,0.3-1,0.3-1.7s-0.1-1.3-0.3-1.7c-0.2-0.4-0.5-0.7-0.9-0.8c-0.4-0.2-1-0.2-1.8-0.2c-1.9,0-3.5-0.1-4.8-0.2
		c-1.3-0.2-2.4-0.5-3.1-1.1c-0.8-0.6-1.3-1.5-1.7-2.7c-0.4-1.2-0.5-2.9-0.5-4.9V44.9L218,45c0.7,0,1.3-0.1,1.7-0.2
		c0.4-0.2,0.7-0.5,0.8-0.9c0.2-0.4,0.2-1,0.2-1.7c0-0.7-0.1-1.2-0.3-1.6C220.3,40.2,220,39.9,219.6,39.7z"/>
</g>
</svg>
