<?xml version="1.0" encoding="utf-8"?>
<!-- Generator: Adobe Illustrator 26.3.1, SVG Export Plug-In . SVG Version: 6.00 Build 0)  -->
<svg version="1.1" id="Capa_1" xmlns="http://www.w3.org/2000/svg" xmlns:xlink="http://www.w3.org/1999/xlink" x="0px" y="0px"
	 viewBox="0 0 120 30" style="enable-background:new 0 0 120 30;" xml:space="preserve">
<style type="text/css">
	.st0{fill:#FFFFFF;}
</style>
<g>
	<path class="st0" d="M13.2,29.9c-1.8,0-3.1-0.3-4.1-1s-1.4-1.5-1.4-2.7c0-0.8,0.2-1.5,0.8-2.1s1.2-1,2.2-1.1
		c-0.3-0.1-0.7-0.4-0.9-0.8c-0.2-0.3-0.3-0.7-0.3-1.1s0.1-0.9,0.4-1.2c0.3-0.3,0.7-0.7,1.2-1c-0.7-0.3-1.2-0.8-1.6-1.4
		c-0.5-0.6-0.7-1.4-0.7-2.2c0-1,0.2-1.8,0.5-2.4c0.4-0.7,1-1.2,1.8-1.5s1.6-0.5,2.7-0.5c0.2,0,0.4,0,0.8,0c0.3,0,0.5,0,0.8,0.1
		c0.2,0,0.4,0.1,0.5,0.1h4.5v1.4L18,12.6c0.2,0.3,0.4,0.7,0.5,1.1c0.1,0.4,0.2,0.9,0.2,1.3c0,1.3-0.4,2.4-1.3,3.2
		c-0.9,0.8-2.2,1.2-3.7,1.2c-0.3,0-0.8,0-1.1-0.1c-0.3,0.2-0.5,0.4-0.8,0.7c-0.2,0.2-0.2,0.5-0.2,0.8s0.1,0.4,0.2,0.5
		c0.1,0.1,0.3,0.2,0.7,0.3c0.3,0.1,0.7,0.1,1.1,0.1h2.3c1.4,0,2.5,0.3,3.3,0.9c0.8,0.7,1.1,1.5,1.1,2.6c0,1.4-0.7,2.6-1.9,3.4
		C17.2,29.5,15.5,29.9,13.2,29.9z M13.3,28.2c1,0,1.9-0.1,2.5-0.3c0.7-0.2,1.2-0.5,1.5-0.9s0.5-0.9,0.5-1.3s-0.1-0.9-0.3-1.1
		c-0.2-0.2-0.5-0.4-1-0.5c-0.4-0.1-1-0.1-1.6-0.1h-2.2c-0.5,0-1.1,0.1-1.4,0.2c-0.3,0.1-0.8,0.4-1,0.8c-0.2,0.2-0.3,0.7-0.3,1.1
		c0,0.7,0.3,1.2,0.9,1.5C11.4,28,12.2,28.2,13.3,28.2z M13.8,17.8c0.9,0,1.5-0.2,2-0.7c0.4-0.4,0.7-1.1,0.7-2s-0.2-1.6-0.7-2.1
		c-0.4-0.4-1.1-0.7-2-0.7s-1.5,0.2-2,0.8c-0.4,0.5-0.7,1.2-0.7,2.1c0,0.9,0.2,1.5,0.7,2C12.3,17.6,13,17.8,13.8,17.8z"/>
	<path class="st0" d="M34.3,17.5c0,1.1-0.1,2.1-0.4,2.9c-0.3,0.9-0.7,1.5-1.2,2.2s-1.2,1-2,1.3s-1.6,0.4-2.5,0.4s-1.8-0.1-2.4-0.4
		c-0.7-0.3-1.4-0.8-2-1.3s-1-1.3-1.2-2.2c-0.3-0.9-0.4-1.9-0.4-2.9c0-1.4,0.2-2.6,0.8-3.7c0.5-1,1.2-1.8,2.1-2.3s2-0.8,3.3-0.8
		c1.2,0,2.3,0.2,3.2,0.8c0.9,0.5,1.6,1.3,2.1,2.3S34.3,16,34.3,17.5z M24.6,17.5c0,1,0.1,1.9,0.4,2.6c0.2,0.8,0.7,1.3,1.2,1.6
		c0.5,0.4,1.2,0.5,2.1,0.5s1.5-0.2,2.1-0.5c0.5-0.4,1-1,1.2-1.6c0.2-0.7,0.3-1.6,0.3-2.6s-0.1-1.9-0.3-2.6c-0.2-0.8-0.7-1.3-1.2-1.6
		c-0.7-0.3-1.3-0.5-2.2-0.5c-1.2,0-2.2,0.4-2.7,1.2C24.9,14.7,24.6,15.9,24.6,17.5z"/>
	<path class="st0" d="M53.3,15.3c0,1.4-0.2,2.6-0.5,3.8c-0.3,1.1-0.9,2.1-1.6,2.9c-0.8,0.8-1.6,1.4-2.7,1.8l4.2,4.4H49l-3.3-4.1
		c-0.1,0-0.2,0-0.2,0c-0.1,0-0.2,0-0.2,0c-1.3,0-2.5-0.2-3.6-0.7c-1-0.4-1.9-1.1-2.5-1.9s-1.2-1.8-1.5-2.9s-0.5-2.3-0.5-3.7
		c0-1.8,0.3-3.4,0.9-4.7c0.5-1.3,1.5-2.4,2.7-3.2c1.1-0.6,2.6-0.9,4.5-0.9c1.8,0,3.3,0.3,4.4,1.1c1.2,0.8,2.1,1.8,2.7,3.1
		C53,11.9,53.3,13.5,53.3,15.3z M39.7,15.3c0,1.4,0.2,2.6,0.5,3.6s1,1.9,1.9,2.4c0.8,0.5,1.9,0.9,3.1,0.9c1.3,0,2.3-0.3,3.2-0.9
		c0.8-0.5,1.4-1.3,1.8-2.4c0.3-1,0.5-2.3,0.5-3.6c0-2.2-0.4-3.8-1.3-5c-0.9-1.2-2.3-1.9-4.2-1.9c-1.3,0-2.3,0.3-3.2,0.9
		c-0.8,0.5-1.4,1.3-1.9,2.4S39.7,13.8,39.7,15.3z"/>
	<path class="st0" d="M61.9,6.6c1.4,0,2.6,0.2,3.6,0.5s1.6,0.9,2.2,1.6c0.5,0.8,0.7,1.6,0.7,2.7c0,0.9-0.2,1.6-0.4,2.3
		c-0.2,0.7-0.8,1.1-1.3,1.5s-1.1,0.7-1.8,0.9l4.9,7.8h-2.9l-4.3-7.1h-3.2v7.1H57V6.6H61.9z M61.8,8.7h-2.2v6.1H62
		c1.4,0,2.4-0.2,3.1-0.8s1-1.3,1-2.4s-0.3-1.9-1-2.3C64.2,8.9,63.2,8.7,61.8,8.7z"/>
	<path class="st0" d="M71.7,22.7c0-0.7,0.1-1,0.4-1.3s0.7-0.3,1.1-0.3s0.9,0.1,1.1,0.3c0.2,0.2,0.4,0.7,0.4,1.3c0,0.5-0.1,1-0.4,1.3
		c-0.3,0.2-0.7,0.4-1.1,0.4s-0.8-0.1-1.1-0.4C71.9,23.7,71.7,23.3,71.7,22.7z"/>
	<path class="st0" d="M93.2,10.7c1.4,0,2.5,0.3,3.3,1.1s1.1,2,1.1,3.6V24h-2.4v-8.3c0-1-0.2-1.9-0.7-2.3c-0.4-0.5-1.1-0.8-1.9-0.8
		c-1.2,0-2.1,0.3-2.6,1.1s-0.8,1.8-0.8,3.2V24h-2.4v-8.3c0-0.7-0.1-1.3-0.3-1.8c-0.2-0.4-0.4-0.8-0.9-1c-0.3-0.2-0.9-0.3-1.4-0.3
		c-0.8,0-1.4,0.2-2,0.5c-0.4,0.3-0.9,0.9-1.1,1.5c-0.2,0.7-0.3,1.5-0.3,2.5v6.8h-2.2V10.8h1.9l0.3,1.9h0.1c0.2-0.4,0.5-0.9,1-1.1
		c0.4-0.3,0.9-0.5,1.3-0.7c0.4-0.1,1-0.2,1.5-0.2c1,0,1.9,0.2,2.5,0.5c0.8,0.3,1.3,0.9,1.6,1.6h0.1c0.4-0.8,1-1.3,1.8-1.6
		C91.6,10.9,92.3,10.7,93.2,10.7z"/>
	<path class="st0" d="M106.8,10.7c1.1,0,2.1,0.2,3,0.8c0.8,0.4,1.4,1.2,1.9,2.1c0.4,0.9,0.7,2,0.7,3.2v1.3h-8.9
		c0,1.4,0.4,2.5,1.1,3.3s1.6,1.1,3,1.1c0.9,0,1.5-0.1,2.2-0.2s1.3-0.4,2-0.7v2c-0.7,0.3-1.3,0.5-2,0.7c-0.7,0.1-1.4,0.2-2.4,0.2
		c-1.3,0-2.4-0.2-3.4-0.8s-1.8-1.3-2.2-2.3c-0.5-1-0.8-2.2-0.8-3.7c0-1.4,0.2-2.6,0.8-3.7c0.4-1,1.2-1.9,2.1-2.4
		S105.6,10.7,106.8,10.7z M106.8,12.5c-1,0-1.8,0.3-2.3,1s-1,1.5-1,2.7h6.5c0-0.8-0.1-1.3-0.3-1.9c-0.2-0.5-0.5-1-1-1.3
		C108.2,12.7,107.5,12.5,106.8,12.5z"/>
</g>
</svg>
