<?xml version="1.0" encoding="utf-8"?>
<!-- Generator: Adobe Illustrator 26.3.1, SVG Export Plug-In . SVG Version: 6.00 Build 0)  -->
<svg version="1.1" id="Capa_1" xmlns="http://www.w3.org/2000/svg" xmlns:xlink="http://www.w3.org/1999/xlink" x="0px" y="0px"
	 viewBox="0 0 104 30" style="enable-background:new 0 0 104 30;" xml:space="preserve">
<style type="text/css">
	.st0{fill:#FFFFFF;}
</style>
<g>
	<g>
		<g>
			<path class="st0" d="M29.6,6.4v12.3c0,1.3-0.3,2.5-0.9,3.5c-0.6,1.1-1.4,1.9-2.6,2.5c-1.2,0.6-2.6,0.9-4.4,0.9
				c-2.5,0-4.4-0.6-5.7-1.9c-1.3-1.3-2-3-2-5.1V6.4h4V18c0,1.6,0.3,2.7,1,3.3c0.6,0.6,1.6,0.9,2.8,0.9c0.9,0,1.6-0.2,2.2-0.5
				c0.6-0.3,1-0.8,1.2-1.4c0.3-0.6,0.4-1.4,0.4-2.4V6.4H29.6z"/>
			<path class="st0" d="M39.8,6.4c1.7,0,3.1,0.2,4.3,0.6c1.1,0.4,2,1,2.5,1.9c0.5,0.8,0.8,1.9,0.8,3.2c0,0.9-0.2,1.6-0.5,2.3
				c-0.3,0.6-0.8,1.2-1.3,1.6c-0.5,0.5-1.1,0.8-1.7,1.1l5.6,8.3H45l-4.5-7.3h-2.1v7.3h-4v-19H39.8z M39.5,9.7h-1.2v5.1h1.3
				c1.3,0,2.3-0.2,2.9-0.7c0.6-0.4,0.9-1.1,0.9-2c0-0.9-0.3-1.5-0.9-1.9C41.8,9.8,40.8,9.7,39.5,9.7z"/>
			<path class="st0" d="M51.8,25.4v-19h4V22h7.7v3.3H51.8z"/>
		</g>
	</g>
	<g>
		<g>
			<ellipse class="st0" cx="79.8" cy="15.4" rx="5" ry="5.4"/>
			<path class="st0" d="M67.5,2.1v26.7h24.6V2.1H67.5z M79.8,25.6c-5.4,0-9.9-4.6-9.9-10.3s4.4-10.3,9.9-10.3
				c5.4,0,9.9,4.6,9.9,10.3S85.2,25.6,79.8,25.6z"/>
		</g>
	</g>
</g>
</svg>
